<svg width="125" height="32" viewBox="0 0 125 32" fill="none" xmlns="http://www.w3.org/2000/svg">
<rect width="125" height="32" fill="#F5F5F5"/>
<rect width="6730" height="8239" transform="translate(-3553 -5246)" fill="#F0EDFD"/>
<g clip-path="url(#clip0_0_1)">
<path fill-rule="evenodd" clip-rule="evenodd" d="M37.9605 8.88H40.8305L43.8405 19.49H43.9205L49.8905 8.88H52.7605L50.7705 22.9H48.8505L50.4705 11.38H50.4305L44.0205 22.9H42.7305L39.5705 11.38H39.5305L37.9005 22.9H35.9805L37.9605 8.88ZM53.0005 13.51H55.0805L56.8705 20.84H56.9105L60.6405 13.51H62.5605L56.4505 24.91C56.2305 25.32 56.0205 25.7 55.8005 26.03C55.5805 26.37 55.3305 26.66 55.0605 26.89C54.7805 27.13 54.4605 27.32 54.1005 27.45C53.7405 27.58 53.3105 27.65 52.8205 27.65C52.5505 27.65 52.2805 27.63 52.0205 27.6C51.7505 27.56 51.5005 27.49 51.2805 27.39L51.7005 25.77C52.0305 25.91 52.3805 25.98 52.7605 25.98C53.0405 25.98 53.2805 25.95 53.4905 25.88C53.7005 25.8 53.8805 25.7 54.0305 25.56C54.1905 25.42 54.3305 25.26 54.4505 25.07C54.5805 24.89 54.7005 24.68 54.8205 24.44L55.6105 22.96L53.0005 13.51Z" fill="#2B5882"/>
<path fill-rule="evenodd" clip-rule="evenodd" d="M75.3499 17.49C75.3499 18.32 75.2299 19.09 74.9699 19.79C74.7199 20.49 74.3399 21.09 73.8399 21.61C73.3399 22.12 72.7099 22.53 71.9699 22.82C71.2199 23.11 70.3499 23.25 69.3799 23.25C68.3899 23.25 67.5199 23.11 66.7699 22.82C66.0199 22.53 65.3999 22.12 64.8999 21.61C64.3999 21.09 64.0199 20.49 63.7599 19.79C63.5099 19.09 63.3799 18.32 63.3799 17.49V8.88002H66.5099V17.37C66.5099 17.81 66.5799 18.21 66.7199 18.58C66.8599 18.95 67.0599 19.27 67.3099 19.54C67.5699 19.81 67.8699 20.02 68.2299 20.17C68.5799 20.32 68.9599 20.4 69.3799 20.4C69.7899 20.4 70.1699 20.32 70.5199 20.17C70.8699 20.02 71.1699 19.81 71.4199 19.54C71.6799 19.27 71.8699 18.95 72.0199 18.58C72.1599 18.21 72.2299 17.81 72.2299 17.37V8.88002H75.3499V17.49ZM84.4599 12.3C84.1999 11.99 83.8599 11.75 83.4199 11.6C82.9899 11.45 82.5799 11.38 82.1899 11.38C81.9599 11.38 81.7299 11.4 81.4899 11.45C81.2499 11.51 81.0199 11.59 80.8099 11.7C80.5899 11.81 80.4199 11.96 80.2899 12.15C80.1499 12.33 80.0899 12.56 80.0899 12.82C80.0899 13.24 80.2499 13.57 80.5699 13.79C80.8899 14.01 81.2899 14.21 81.7799 14.36C82.2699 14.52 82.7899 14.68 83.3599 14.84C83.9199 15 84.4399 15.22 84.9299 15.51C85.4199 15.8 85.8199 16.19 86.1399 16.68C86.4599 17.17 86.6199 17.82 86.6199 18.64C86.6199 19.42 86.4799 20.1 86.1799 20.68C85.8899 21.26 85.4899 21.74 84.9899 22.12C84.4899 22.51 83.9099 22.79 83.2399 22.98C82.5799 23.16 81.8799 23.25 81.1499 23.25C80.2299 23.25 79.3699 23.11 78.5799 22.84C77.7899 22.56 77.0599 22.11 76.3799 21.49L78.5999 19.07C78.9199 19.5 79.3299 19.82 79.8199 20.05C80.2999 20.29 80.8099 20.4 81.3299 20.4C81.5799 20.4 81.8399 20.37 82.0999 20.31C82.3599 20.25 82.5999 20.16 82.7999 20.04C83.0099 19.93 83.1799 19.77 83.3099 19.59C83.4299 19.4 83.4999 19.19 83.4999 18.94C83.4999 18.51 83.3299 18.18 82.9999 17.94C82.6799 17.69 82.2699 17.49 81.7699 17.31C81.2799 17.14 80.7399 16.97 80.1699 16.8C79.5899 16.63 79.0599 16.4 78.5599 16.11C78.0699 15.81 77.6599 15.43 77.3299 14.96C76.9999 14.48 76.8399 13.86 76.8399 13.08C76.8399 12.32 76.9899 11.67 77.2899 11.1C77.5899 10.53 77.9899 10.06 78.4899 9.67002C78.9899 9.29002 79.5699 9.00002 80.2299 8.81002C80.8799 8.62002 81.5599 8.52002 82.2499 8.52002C83.0499 8.52002 83.8299 8.64002 84.5799 8.86002C85.3299 9.09002 85.9999 9.46002 86.5999 9.99002L84.4599 12.3Z" fill="#BF333A"/>
<path fill-rule="evenodd" clip-rule="evenodd" d="M97.7395 16.01C97.4595 15.66 97.1495 15.4 96.8095 15.22C96.4695 15.05 96.0395 14.96 95.5395 14.96C95.0395 14.96 94.5995 15.05 94.2095 15.22C93.8095 15.4 93.4695 15.65 93.1795 15.96C92.8895 16.27 92.6495 16.62 92.4695 17.03C92.2895 17.43 92.1595 17.85 92.0995 18.28C92.0295 18.72 92.0495 19.13 92.1395 19.52C92.2295 19.91 92.3895 20.25 92.6195 20.54C92.8395 20.83 93.1295 21.06 93.4895 21.22C93.8395 21.39 94.2495 21.47 94.7195 21.47C95.2195 21.47 95.6695 21.38 96.0595 21.2C96.4395 21.02 96.8095 20.76 97.1495 20.42L98.2495 21.69C97.7095 22.2 97.1095 22.57 96.4595 22.8C95.8095 23.02 95.1395 23.13 94.4395 23.13C93.7095 23.13 93.0495 23.01 92.4795 22.78C91.8995 22.54 91.4295 22.21 91.0595 21.78C90.6795 21.35 90.4095 20.83 90.2495 20.23C90.0895 19.63 90.0695 18.97 90.1695 18.24C90.2695 17.52 90.4795 16.85 90.8095 16.24C91.1295 15.64 91.5495 15.12 92.0495 14.68C92.5495 14.25 93.1195 13.91 93.7595 13.66C94.3995 13.42 95.0995 13.29 95.8495 13.29C96.5395 13.29 97.1895 13.42 97.7795 13.66C98.3795 13.91 98.8795 14.28 99.2795 14.78L97.7395 16.01ZM100.96 18.2C100.89 18.68 100.9 19.12 100.99 19.52C101.08 19.92 101.23 20.27 101.46 20.55C101.69 20.83 101.99 21.06 102.35 21.22C102.72 21.39 103.15 21.47 103.63 21.47C104.11 21.47 104.55 21.39 104.96 21.22C105.37 21.06 105.73 20.83 106.03 20.55C106.34 20.27 106.6 19.92 106.81 19.52C107.01 19.12 107.15 18.68 107.22 18.2C107.28 17.73 107.27 17.29 107.19 16.89C107.1 16.49 106.94 16.14 106.7 15.86C106.47 15.57 106.17 15.35 105.81 15.18C105.45 15.02 105.03 14.94 104.55 14.94C104.07 14.94 103.62 15.02 103.22 15.18C102.81 15.35 102.45 15.57 102.13 15.86C101.82 16.14 101.56 16.49 101.36 16.89C101.16 17.29 101.03 17.73 100.96 18.2ZM99.0395 18.2C99.1295 17.52 99.3495 16.88 99.6995 16.28C100.05 15.69 100.48 15.17 101 14.72C101.52 14.27 102.11 13.92 102.76 13.66C103.4 13.4 104.08 13.27 104.79 13.27C105.5 13.27 106.14 13.4 106.72 13.66C107.29 13.92 107.77 14.27 108.17 14.72C108.56 15.17 108.85 15.69 109.02 16.28C109.19 16.88 109.24 17.52 109.14 18.2C109.03 18.89 108.81 19.53 108.47 20.13C108.13 20.74 107.7 21.26 107.18 21.7C106.65 22.14 106.07 22.49 105.42 22.75C104.77 23 104.1 23.13 103.39 23.13C102.68 23.13 102.03 23 101.45 22.75C100.87 22.49 100.39 22.14 99.9995 21.7C99.6095 21.26 99.3295 20.74 99.1495 20.13C98.9695 19.53 98.9295 18.89 99.0395 18.2ZM111.07 13.51H112.75L112.55 14.98H112.59C112.66 14.85 112.78 14.68 112.97 14.48C113.16 14.28 113.4 14.1 113.69 13.92C113.99 13.74 114.32 13.59 114.68 13.46C115.05 13.34 115.45 13.28 115.88 13.28C117.25 13.28 118.15 13.86 118.58 15.02C118.98 14.44 119.48 14 120.08 13.71C120.68 13.42 121.27 13.28 121.84 13.28C122.57 13.28 123.16 13.39 123.59 13.63C124.02 13.87 124.34 14.18 124.55 14.57C124.76 14.96 124.88 15.4 124.91 15.9C124.94 16.39 124.92 16.9 124.84 17.43L124.1 22.9H122.29L123.04 17.67C123.09 17.31 123.11 16.97 123.11 16.64C123.1 16.31 123.04 16.02 122.94 15.77C122.83 15.52 122.65 15.32 122.4 15.17C122.16 15.01 121.81 14.94 121.37 14.94C120.5 14.94 119.84 15.2 119.4 15.73C118.95 16.26 118.67 16.94 118.54 17.77L117.82 22.9H116.02L116.7 17.99C116.77 17.54 116.8 17.13 116.81 16.76C116.82 16.39 116.77 16.07 116.67 15.8C116.57 15.53 116.4 15.32 116.16 15.17C115.92 15.01 115.58 14.94 115.14 14.94C114.82 14.94 114.5 15 114.17 15.13C113.85 15.25 113.56 15.44 113.3 15.69C113.04 15.94 112.82 16.26 112.63 16.65C112.44 17.04 112.31 17.5 112.23 18.03L111.55 22.9H109.74L111.07 13.51Z" fill="#2B5882"/>
<path fill-rule="evenodd" clip-rule="evenodd" d="M23.7503 19.14C24.8503 21.99 25.8003 24.91 26.6103 27.89L19.2103 31.24C17.4603 28.69 15.8503 26.07 14.3603 23.39L23.7503 19.14ZM19.7003 8.27004C22.5603 7.21004 25.4803 6.30004 28.4803 5.53004L32.0403 12.9C29.4703 14.64 26.8403 16.24 24.1403 17.71L19.7003 8.27004ZM13.2703 0.0400391C15.0303 2.58004 16.5803 5.03004 18.0603 7.70004L8.67031 11.95C7.58031 9.10004 6.70031 6.38004 5.87031 3.40004L13.2703 0.0400391ZM8.35031 13.49L12.7303 22.96C9.86031 24.05 6.93031 25.01 3.93031 25.83L0.570312 18.37C3.10031 16.59 5.69031 14.97 8.35031 13.49Z" fill="#BF333A"/>
<path fill-rule="evenodd" clip-rule="evenodd" d="M4.89024 5.16001C5.48024 7.66001 6.22024 10.09 7.09024 12.46C4.89024 13.71 2.77024 15.11 0.710243 16.65C0.180243 12.37 1.74024 8.07001 4.89024 5.16001ZM26.7602 4.73001C24.2202 5.29001 21.7502 5.99001 19.3402 6.82001C18.0902 4.64001 16.7002 2.53001 15.1602 0.480008C19.5102 0.0100083 23.8502 1.59001 26.7602 4.73001ZM27.4502 26.26C26.8502 23.76 26.1102 21.33 25.2402 18.96C27.4402 17.71 29.5602 16.31 31.6202 14.77C32.1502 19.05 30.5902 23.35 27.4502 26.26ZM5.61024 26.89C8.13024 26.26 10.5802 25.5 12.9702 24.61C14.2702 26.76 15.7102 28.84 17.3002 30.85C12.9702 31.43 8.60024 29.95 5.61024 26.89ZM89.6602 21.71C89.6602 22.42 89.0702 22.99 88.3502 22.99C87.6302 22.99 87.0502 22.42 87.0502 21.71C87.0502 21 87.6302 20.42 88.3502 20.42C89.0702 20.42 89.6602 21 89.6602 21.71Z" fill="#2B5882"/>
</g>
<defs>
<clipPath id="clip0_0_1">
<rect width="125" height="32" fill="white"/>
</clipPath>
</defs>
</svg>
